<svg xmlns="http://www.w3.org/2000/svg" width="364" height="320" viewBox="0 0 364 320">
    <g fill="none" fill-rule="evenodd">
        <circle cx="189" cy="160" r="160" fill="#3D4653"/>
        <path fill="#4B5665" fill-rule="nonzero" d="M20 269c-11.046 0-20-8.954-20-20s8.954-20 20-20 20 8.954 20 20-8.954 20-20 20zm0-8c6.627 0 12-5.373 12-12s-5.373-12-12-12-12 5.373-12 12 5.373 12 12 12zM354.5 215.5a9 9 0 1 1 0-18 9 9 0 0 1 0 18zm0-5a4 4 0 1 0 0-8 4 4 0 0 0 0 8zM346.41 12.04a3.975 3.975 0 0 0-3.434-.953 4.01 4.01 0 0 0-.925.3l-46.8 21.747a3.917 3.917 0 0 0-2.282 3.71 3.875 3.875 0 0 0 2.59 3.48l11.591 4.122 2.62 13.477c.1.51.485.918.994 1.052a1.399 1.399 0 0 0 1.4-.423l8.299-9.371 8.931 3.176c.697.248 1.42.29 2.1.158a3.966 3.966 0 0 0 2.956-2.463l12.965-33.781a3.846 3.846 0 0 0-1.005-4.23zm-16.077 35.744l-13.59-4.834 10.327-12.9a.466.466 0 0 0-.018-.606.482.482 0 0 0-.61-.082l-17.444 10.834-10.201-3.628 43.62-20.269-12.084 31.485z"/>
        <circle cx="252" cy="112" r="5" fill="#4B5665"/>
        <circle cx="108" cy="186" r="12" fill="#4B5665"/>
    </g>
</svg>
