<svg xmlns="http://www.w3.org/2000/svg" width="193" height="43" viewBox="0 0 193 43">
    <path fill="#FFF" fill-rule="evenodd" d="M25.637 28.385c0 2.227-.336 4.235-1.007 6.024-.67 1.79-1.579 3.32-2.723 4.593a11.68 11.68 0 0 1-4.026 2.922 12.088 12.088 0 0 1-4.915 1.014c-1.815 0-3.404-.259-4.766-.775-1.362-.517-2.635-1.313-3.819-2.386h-.118L3.73 42.4H0V.056h5.151v17.833c1.263-1.352 2.654-2.346 4.174-2.982a12.221 12.221 0 0 1 4.766-.955c3.553 0 6.365 1.273 8.437 3.817 2.073 2.545 3.109 6.084 3.109 10.616zm-5.447.06c0-3.101-.652-5.576-1.954-7.425-1.303-1.85-3.138-2.774-5.506-2.774-1.5 0-2.862.338-4.086 1.014-1.223.676-2.388 1.63-3.493 2.863v13.598a10.3 10.3 0 0 0 2.812 2.296c1.046.577 2.26.865 3.642.865a9.01 9.01 0 0 0 3.226-.596 7.187 7.187 0 0 0 2.754-1.879c.789-.855 1.42-1.938 1.894-3.25s.71-2.883.71-4.712zm37.793-.358c0 2.346-.355 4.443-1.065 6.292-.71 1.85-1.688 3.41-2.931 4.682a12.394 12.394 0 0 1-4.352 2.893c-1.658.656-3.454.984-5.388.984-1.934 0-3.72-.308-5.358-.925a11.769 11.769 0 0 1-4.263-2.743c-1.204-1.213-2.151-2.704-2.842-4.473-.69-1.77-1.036-3.807-1.036-6.113 0-2.346.355-4.434 1.066-6.263.71-1.829 1.687-3.37 2.93-4.622a12.593 12.593 0 0 1 4.352-2.863c1.658-.656 3.454-.984 5.388-.984 1.934 0 3.72.298 5.358.895a11.63 11.63 0 0 1 4.263 2.684c1.204 1.193 2.152 2.674 2.842 4.443.691 1.77 1.036 3.807 1.036 6.113zm-5.447.298c0-1.868-.236-3.459-.71-4.77-.474-1.313-1.095-2.386-1.865-3.221s-1.648-1.442-2.635-1.82a8.382 8.382 0 0 0-3.02-.566 9.784 9.784 0 0 0-3.019.477c-.987.318-1.855.875-2.605 1.67-.75.795-1.352 1.859-1.806 3.19-.454 1.333-.68 3.013-.68 5.04 0 1.87.236 3.47.71 4.802.473 1.332 1.095 2.415 1.865 3.25s1.648 1.451 2.634 1.849a8.014 8.014 0 0 0 3.02.596 9.259 9.259 0 0 0 3.02-.507c.986-.338 1.855-.914 2.605-1.73.75-.814 1.352-1.888 1.806-3.22.453-1.332.68-3.012.68-5.04zm38.853-.298c0 2.346-.355 4.443-1.065 6.292-.71 1.85-1.688 3.41-2.931 4.682a12.394 12.394 0 0 1-4.352 2.893c-1.658.656-3.454.984-5.388.984-1.934 0-3.72-.308-5.358-.925a11.769 11.769 0 0 1-4.263-2.743c-1.204-1.213-2.151-2.704-2.842-4.473-.69-1.77-1.036-3.807-1.036-6.113 0-2.346.355-4.434 1.066-6.263.71-1.829 1.687-3.37 2.93-4.622a12.593 12.593 0 0 1 4.352-2.863c1.658-.656 3.454-.984 5.388-.984 1.934 0 3.72.298 5.358.895a11.63 11.63 0 0 1 4.263 2.684c1.204 1.193 2.152 2.674 2.842 4.443.691 1.77 1.036 3.807 1.036 6.113zm-5.447.298c0-1.868-.236-3.459-.71-4.77-.474-1.313-1.095-2.386-1.865-3.221s-1.648-1.442-2.635-1.82a8.382 8.382 0 0 0-3.02-.566 9.784 9.784 0 0 0-3.019.477c-.987.318-1.855.875-2.605 1.67-.75.795-1.352 1.859-1.806 3.19-.454 1.333-.68 3.013-.68 5.04 0 1.87.236 3.47.71 4.802.473 1.332 1.095 2.415 1.865 3.25s1.648 1.451 2.634 1.849a8.014 8.014 0 0 0 3.02.596 9.259 9.259 0 0 0 3.02-.507c.986-.338 1.855-.914 2.605-1.73.75-.814 1.352-1.888 1.805-3.22.454-1.332.681-3.012.681-5.04zm17.545 3.758V42.4h-5.15V.056h5.15v26.361l11.19-12.047h6.454l-11.427 11.809 11.96 16.222h-6.158L106.27 29.34l-2.783 2.803zm51.05-8.118h-16.653v11.358h19.543V42.4h-28.216V0h28.159v7.077h-19.486v10.105h16.652v6.843zm22.976-3.619L182.774 11h8.933l-8.904 15.434 9.28 16.076h-8.962l-5.58-9.902-5.55 9.902H163l9.28-16.076L163.405 11h8.962l5.146 9.406z"/>
</svg>
