<svg xmlns="http://www.w3.org/2000/svg" width="40" height="27" viewBox="0 0 40 27">
    <defs>
        <filter id="a" width="117.8%" height="180%" x="-8.9%" y="-40%" filterUnits="objectBoundingBox">
            <feOffset dy="5" in="SourceAlpha" result="shadowOffsetOuter1"/>
            <feGaussianBlur in="shadowOffsetOuter1" result="shadowBlurOuter1" stdDeviation="2.5"/>
            <feColorMatrix in="shadowBlurOuter1" result="shadowMatrixOuter1" values="0 0 0 0 0 0 0 0 0 0 0 0 0 0 0 0 0 0 0.05 0"/>
            <feMerge>
                <feMergeNode in="shadowMatrixOuter1"/>
                <feMergeNode in="SourceGraphic"/>
            </feMerge>
        </filter>
    </defs>
    <path fill="#FFF" fill-rule="evenodd" d="M47.84 31.353a2.036 2.036 0 0 0-.1-.194c-.521-.931-1.516-2.074-2.984-3.429l-.031-.03-.016-.016-.015-.016h-.016c-.666-.63-1.088-1.055-1.265-1.272-.323-.414-.396-.832-.22-1.257.126-.32.595-.997 1.407-2.032.427-.548.765-.987 1.015-1.318 1.801-2.38 2.582-3.9 2.343-4.561l-.093-.155c-.063-.093-.224-.178-.484-.256-.26-.078-.594-.09-1-.039l-4.499.031c-.072-.026-.176-.023-.312.008l-.203.047-.078.038-.063.047a.692.692 0 0 0-.171.163 1.063 1.063 0 0 0-.156.271 25.256 25.256 0 0 1-1.672 3.49c-.385.642-.739 1.198-1.062 1.669-.323.47-.594.817-.812 1.039-.219.222-.416.4-.594.535-.177.135-.312.191-.406.17-.094-.02-.182-.04-.266-.061a1.034 1.034 0 0 1-.35-.38 1.693 1.693 0 0 1-.18-.606 6.626 6.626 0 0 1-.055-.628c-.005-.176-.003-.424.008-.745.01-.32.015-.537.015-.651 0-.393.008-.82.024-1.28.015-.46.028-.825.039-1.094.01-.269.015-.553.015-.853 0-.3-.018-.535-.054-.706a2.403 2.403 0 0 0-.164-.496.838.838 0 0 0-.32-.373 1.812 1.812 0 0 0-.523-.21c-.552-.123-1.255-.19-2.11-.2-1.936-.021-3.18.103-3.732.372a2.102 2.102 0 0 0-.594.465c-.187.228-.213.352-.078.372.625.093 1.067.316 1.327.667l.094.186c.073.135.146.373.22.714.072.341.119.719.14 1.132.052.755.052 1.402 0 1.94-.053.538-.102.956-.149 1.256-.047.3-.117.543-.21.73a3.07 3.07 0 0 1-.188.34.268.268 0 0 1-.078.078 1.177 1.177 0 0 1-.422.078c-.146 0-.323-.073-.531-.217a3.738 3.738 0 0 1-.648-.598 7.985 7.985 0 0 1-.758-1.062 18.504 18.504 0 0 1-.875-1.614l-.25-.45c-.156-.29-.369-.71-.64-1.264-.27-.553-.51-1.089-.718-1.606a1.023 1.023 0 0 0-.375-.496l-.078-.047a1.071 1.071 0 0 0-.25-.132 1.667 1.667 0 0 0-.36-.1l-4.28.03c-.436 0-.733.099-.89.295l-.062.093a.499.499 0 0 0-.047.249c0 .113.031.253.094.418a51.046 51.046 0 0 0 2.038 4.22c.734 1.355 1.372 2.446 1.913 3.273a38.648 38.648 0 0 0 1.656 2.343c.562.734.935 1.205 1.117 1.411.182.208.325.362.43.466l.39.372c.25.248.617.546 1.101.892a18.8 18.8 0 0 0 1.609 1.024c.588.336 1.273.61 2.054.822a7.149 7.149 0 0 0 2.28.257h1.797c.364-.032.64-.146.828-.342l.062-.078c.042-.061.08-.157.117-.286.037-.13.055-.272.055-.427-.011-.445.023-.845.101-1.202.078-.357.167-.626.266-.807.099-.18.211-.333.336-.457.124-.124.213-.2.266-.225.051-.026.093-.044.124-.055.25-.082.544-.002.883.241.338.243.656.543.953.9.297.357.653.757 1.07 1.202.416.445.78.776 1.093.993l.312.186c.209.124.48.238.813.342.332.103.624.129.874.077l3.999-.062c.395 0 .703-.065.921-.194.219-.13.349-.272.39-.426.043-.156.045-.331.009-.528a1.937 1.937 0 0 0-.11-.411z" filter="url(#a)" transform="translate(-13 -16)"/>
</svg>
